<svg xmlns="http://www.w3.org/2000/svg" viewBox="0 0 308.000000 302.000000" width="512" height="512">
  <defs>
    <radialGradient id="gold" cx="40%" cy="35%" r="65%">
      <stop offset="0%" stop-color="#FFE066"/>
      <stop offset="40%" stop-color="#D4A017"/>
      <stop offset="100%" stop-color="#8B5E00"/>
    </radialGradient>
  </defs>
  <g transform="translate(0,302) scale(0.1,-0.1)" fill="url(#gold)">
    <path d="M1460 2750 c-494 -45 -918 -411 -1052 -908 -52 -192 -27 -605 36
-614 47 -7 68 3 62 31 -32 145 -36 179 -36 298 0 312 100 551 328 780 180 182
381 280 654 319 460 66 927 -192 1139 -629 22 -45 47 -106 55 -134 17 -58 21
-60 66 -37 36 19 35 35 -12 147 -138 331 -408 582 -747 693 -169 55 -308 70
-493 54z"/>
    <path d="M1319 2491 c-93 -26 -184 -70 -146 -71 21 0 22 -18 2 -44 -20 -26
-19 -75 0 -82 25 -10 74 16 102 53 15 19 44 43 65 54 21 11 39 26 39 34 1 8 3
20 4 25 1 6 3 14 4 19 0 5 15 13 32 16 23 5 28 9 18 16 -17 11 -7 13 -120 -20z"/>
    <path d="M1653 2488 c-6 -18 -14 -48 -18 -66 -5 -22 -15 -36 -30 -42 -13 -5
-26 -14 -30 -19 -3 -6 -15 -11 -26 -11 -28 0 -34 -26 -16 -63 9 -18 18 -40 21
-50 8 -26 52 -43 71 -27 9 7 14 19 11 27 -4 9 5 16 24 20 17 3 33 10 36 14 3
5 13 9 23 9 11 0 29 8 42 19 32 26 11 55 -33 46 -30 -7 -42 18 -13 29 8 3 15
18 15 33 0 20 7 31 26 40 34 16 40 11 48 -32 4 -21 17 -41 31 -51 42 -27 32
-51 -32 -80 -117 -53 -143 -67 -143 -77 0 -6 -10 -21 -22 -34 -20 -21 -20 -24
-5 -41 18 -19 21 -40 11 -66 -8 -20 -28 -21 -44 -1 -15 18 -71 20 -88 3 -23
-23 -14 -67 20 -98 l31 -29 -36 -73 c-19 -40 -49 -87 -65 -105 -42 -44 -57
-99 -35 -132 10 -15 16 -44 15 -72 -1 -41 3 -50 38 -84 l40 -39 82 23 c160 45
404 121 513 160 208 74 235 85 235 95 0 6 -14 27 -30 46 -59 69 -31 87 38 25
74 -66 120 -60 107 15 -7 40 -6 43 14 37 26 -6 26 -4 2 64 -99 290 -359 520
-676 599 -117 29 -138 27 -152 -12z"/>
    <path d="M1120 2410 c-8 -5 -12 -11 -9 -14 3 -3 14 1 25 9 21 16 8 20 -16 5z"/>
    <path d="M1005 2334 c-220 -175 -342 -387 -373 -650 -13 -107 -11 -124 21
-141 15 -7 27 -16 27 -19 0 -3 -5 -2 -11 1 -6 4 -13 -3 -16 -14 -5 -20 -7 -21
-24 -5 -21 19 -49 12 -49 -11 0 -8 3 -15 8 -15 4 -1 27 -19 52 -42 25 -23 37
-36 28 -29 -14 11 -17 9 -20 -15 l-3 -28 -35 32 c-45 42 -80 41 -64 -1 7 -20
260 -241 336 -294 69 -48 84 -52 223 -56 l100 -3 70 -52 c141 -106 225 -172
225 -180 0 -9 -325 -242 -562 -404 -181 -124 -204 -148 -194 -203 16 -82 101
-93 176 -22 211 201 399 367 582 515 l77 63 68 -53 c99 -76 316 -265 489 -426
178 -165 207 -177 268 -116 18 18 21 76 5 105 -6 11 -74 63 -152 115 -176 117
-591 412 -594 422 -3 10 227 188 280 217 32 18 63 24 134 28 139 7 173 27 366
217 137 133 159 159 153 178 -10 30 -13 29 -92 -35 -64 -53 -66 -54 -31 -15
57 65 44 74 -18 12 -52 -53 -69 -79 -42 -64 17 9 -37 -41 -106 -99 -36 -31
-63 -47 -73 -43 -23 9 -17 17 71 91 109 93 245 226 245 241 0 40 -55 7 -175
-104 -109 -102 -176 -154 -190 -148 -22 8 -18 22 13 46 38 30 286 261 294 275
4 6 3 17 -2 25 -9 14 -20 6 -239 -177 -116 -99 -143 -114 -156 -94 -7 12 0 18
202 193 127 110 161 144 152 154 -9 11 -15 11 -33 -1 -12 -8 -40 -21 -64 -29
-23 -9 -82 -34 -130 -57 -225 -108 -313 -216 -320 -393 -2 -50 -8 -103 -13
-117 -8 -21 -138 -124 -293 -233 -16 -11 -57 14 -207 127 -116 87 -124 98
-133 180 -11 111 -76 190 -244 294 -200 125 -232 145 -232 150 0 3 16 2 35 -1
43 -8 45 5 15 94 -11 32 -18 74 -16 92 2 18 4 45 5 60 1 21 11 34 41 53 l40
25 0 78 c0 56 5 84 18 103 9 15 29 44 43 65 15 22 34 46 43 54 21 17 68 108
64 122 -2 5 -31 -11 -63 -38z m-119 -295 c3 -6 -3 -21 -15 -32 l-21 -21 0 25
c0 37 20 53 36 28z m-150 -381 c4 -7 3 -8 -5 -4 -6 4 -18 1 -26 -7 -17 -18 7
-41 143 -138 51 -36 80 -64 76 -71 -4 -7 -3 -8 5 -4 14 9 74 -32 66 -45 -4 -5
0 -7 7 -4 20 7 59 -27 49 -44 -7 -11 -13 -11 -32 -1 -47 25 -174 122 -171 132
1 5 -1 7 -5 5 -11 -7 -105 62 -99 72 3 4 -10 25 -30 46 -33 36 -33 39 -18 56
20 22 30 24 40 7z m44 -213 c91 -70 110 -88 105 -96 -3 -4 3 -6 13 -5 9 0 16
-4 15 -10 -1 -7 5 -11 15 -10 9 0 16 -5 14 -12 -1 -8 2 -11 7 -8 5 3 15 -1 22
-10 10 -13 10 -17 -1 -24 -9 -6 -27 2 -53 23 -21 18 -49 39 -61 47 -82 54
-129 90 -118 90 17 0 -2 36 -32 63 -37 33 7 5 74 -48z m-45 -85 c10 -11 16
-20 13 -20 -3 0 -13 9 -23 20 -10 11 -16 20 -13 20 3 0 13 -9 23 -20z m130
-103 c28 -22 50 -44 50 -50 0 -19 -20 -17 -45 4 -14 11 -19 18 -12 14 27 -14
9 16 -30 50 -53 46 -30 34 37 -18z"/>
    <path d="M750 1546 c0 -2 7 -7 16 -10 8 -3 12 -2 9 4 -6 10 -25 14 -25 6z"/>
    <path d="M2732 2056 c2 -17 13 -22 51 -28 96 -13 129 -62 83 -123 -31 -40
-109 -85 -267 -156 -103 -47 -154 -83 -142 -101 2 -5 14 -3 26 3 16 9 22 9 25
0 6 -17 26 -14 95 15 223 92 336 170 359 245 24 82 -53 152 -175 161 -54 4
-58 3 -55 -16z"/>
    <path d="M2727 1682 c-27 -17 -27 -17 -31 -152 -2 -74 -9 -155 -15 -180 -7
-25 -20 -72 -29 -105 -38 -143 -142 -322 -260 -447 -64 -67 -219 -186 -291
-223 l-33 -17 23 -24 c35 -38 52 -37 120 2 272 157 478 448 550 776 21 97 35
296 25 351 -8 41 -18 45 -59 19z"/>
    <path d="M1932 1519 c-27 -10 -409 -123 -562 -166 -91 -25 -105 -32 -102 -49
10 -56 41 -51 447 72 50 15 112 33 139 40 55 15 65 22 107 76 33 41 24 49 -29
27z"/>
    <path d="M2403 1493 c-15 -5 -17 -23 -4 -23 5 0 11 7 15 15 3 8 4 15 3 14 -1
0 -8 -3 -14 -6z"/>
    <path d="M273 1375 c-98 -103 -98 -195 1 -248 36 -19 56 -22 171 -22 129 1
301 20 310 35 3 4 -10 19 -28 33 -31 23 -36 24 -117 16 -308 -29 -401 20 -299
160 31 44 35 56 18 66 -6 4 -31 -14 -56 -40z"/>
    <path d="M1815 1325 c-5 -2 -43 -13 -83 -25 -41 -12 -71 -24 -69 -27 6 -5 68
11 162 42 22 8 31 13 20 13 -11 0 -24 -1 -30 -3z"/>
    <path d="M2409 1200 c-55 -62 -132 -121 -207 -159 -27 -14 -40 -26 -35 -34 17
-28 21 -102 6 -127 -23 -39 -100 -96 -190 -143 -78 -40 -110 -67 -60 -51 73
22 215 110 301 186 56 49 150 168 192 245 21 38 42 70 46 71 4 2 6 8 3 13 -3
5 -1 17 5 28 23 44 -11 27 -61 -29z"/>
    <path d="M771 1101 c-20 -13 76 -138 177 -231 94 -87 108 -89 81 -13 -24 70
-24 78 2 114 15 21 29 29 52 30 18 1 -2 7 -43 13 -88 15 -116 25 -175 66 -45
31 -70 36 -94 21z"/>
    <path d="M490 1051 c0 -42 130 -229 231 -332 91 -93 264 -219 300 -219 13 0
69 42 69 51 0 5 -30 26 -67 48 -173 100 -319 248 -415 418 -30 53 -31 54 -74
51 -29 -2 -44 -8 -44 -17z"/>
    <path d="M2090 851 c0 -11 5 -23 10 -26 6 -4 10 5 10 19 0 14 -4 26 -10 26 -5
0 -10 -9 -10 -19z"/>
    <path d="M1095 760 c8 -14 143 -80 162 -80 32 0 6 19 -69 51 -46 18 -87 36
-92 38 -5 2 -5 -2 -1 -9z"/>
    <path d="M1498 633 c7 -3 16 -2 19 1 4 3 -2 6 -13 5 -11 0 -14 -3 -6 -6z"/>
    <path d="M1252 449 c-19 -17 -31 -33 -28 -36 37 -38 381 -66 526 -44 86 13
190 41 189 50 0 3 -16 19 -35 35 l-34 28 -85 -17 c-126 -25 -305 -23 -430 6
-59 13 -67 11 -103 -22z"/>
  </g>
</svg>